<mxfile host="Electron" modified="2025-01-22T10:41:35.311Z" agent="Mozilla/5.0 (Macintosh; Intel Mac OS X 10_15_7) AppleWebKit/537.36 (KHTML, like Gecko) draw.io/24.4.6 Chrome/124.0.6367.207 Electron/30.0.6 Safari/537.36" etag="VYTANMjdaQAWwQrTJP0T" version="24.4.6" type="device" pages="4">
  <diagram id="iunZmE7E6BgedHIRVjCQ" name="Bank">
    <mxGraphModel dx="1407" dy="578" grid="1" gridSize="10" guides="1" tooltips="1" connect="1" arrows="1" fold="1" page="1" pageScale="1" pageWidth="1169" pageHeight="827" math="0" shadow="0">
      <root>
        <mxCell id="0" />
        <mxCell id="1" parent="0" />
        <mxCell id="VYMpUTlePzN7HzJO34z0-1" value="Person" style="swimlane;fontStyle=1;align=center;verticalAlign=top;childLayout=stackLayout;horizontal=1;startSize=26;horizontalStack=0;resizeParent=1;resizeParentMax=0;resizeLast=0;collapsible=1;marginBottom=0;whiteSpace=wrap;html=1;" vertex="1" parent="1">
          <mxGeometry x="400" y="80" width="160" height="60" as="geometry" />
        </mxCell>
        <mxCell id="VYMpUTlePzN7HzJO34z0-2" value="+ ID: String" style="text;strokeColor=none;fillColor=none;align=left;verticalAlign=top;spacingLeft=4;spacingRight=4;overflow=hidden;rotatable=0;points=[[0,0.5],[1,0.5]];portConstraint=eastwest;whiteSpace=wrap;html=1;" vertex="1" parent="VYMpUTlePzN7HzJO34z0-1">
          <mxGeometry y="26" width="160" height="26" as="geometry" />
        </mxCell>
        <mxCell id="VYMpUTlePzN7HzJO34z0-3" value="" style="line;strokeWidth=1;fillColor=none;align=left;verticalAlign=middle;spacingTop=-1;spacingLeft=3;spacingRight=3;rotatable=0;labelPosition=right;points=[];portConstraint=eastwest;strokeColor=inherit;" vertex="1" parent="VYMpUTlePzN7HzJO34z0-1">
          <mxGeometry y="52" width="160" height="8" as="geometry" />
        </mxCell>
        <mxCell id="VYMpUTlePzN7HzJO34z0-24" style="edgeStyle=orthogonalEdgeStyle;rounded=0;orthogonalLoop=1;jettySize=auto;html=1;exitX=0.5;exitY=0;exitDx=0;exitDy=0;entryX=0.5;entryY=1;entryDx=0;entryDy=0;endArrow=block;endFill=0;" edge="1" parent="1" source="VYMpUTlePzN7HzJO34z0-5" target="VYMpUTlePzN7HzJO34z0-1">
          <mxGeometry relative="1" as="geometry" />
        </mxCell>
        <mxCell id="VYMpUTlePzN7HzJO34z0-26" style="edgeStyle=orthogonalEdgeStyle;rounded=0;orthogonalLoop=1;jettySize=auto;html=1;exitX=0.5;exitY=1;exitDx=0;exitDy=0;entryX=0.5;entryY=0;entryDx=0;entryDy=0;endArrow=blockThin;endFill=1;" edge="1" parent="1" source="VYMpUTlePzN7HzJO34z0-5" target="VYMpUTlePzN7HzJO34z0-11">
          <mxGeometry relative="1" as="geometry" />
        </mxCell>
        <mxCell id="VYMpUTlePzN7HzJO34z0-5" value="Kunde" style="swimlane;fontStyle=1;align=center;verticalAlign=top;childLayout=stackLayout;horizontal=1;startSize=26;horizontalStack=0;resizeParent=1;resizeParentMax=0;resizeLast=0;collapsible=1;marginBottom=0;whiteSpace=wrap;html=1;" vertex="1" parent="1">
          <mxGeometry x="300" y="180" width="160" height="86" as="geometry" />
        </mxCell>
        <mxCell id="VYMpUTlePzN7HzJO34z0-6" value="+ Berater: Berater" style="text;strokeColor=none;fillColor=none;align=left;verticalAlign=top;spacingLeft=4;spacingRight=4;overflow=hidden;rotatable=0;points=[[0,0.5],[1,0.5]];portConstraint=eastwest;whiteSpace=wrap;html=1;" vertex="1" parent="VYMpUTlePzN7HzJO34z0-5">
          <mxGeometry y="26" width="160" height="26" as="geometry" />
        </mxCell>
        <mxCell id="VYMpUTlePzN7HzJO34z0-14" value="+ Konto: Konto" style="text;strokeColor=none;fillColor=none;align=left;verticalAlign=top;spacingLeft=4;spacingRight=4;overflow=hidden;rotatable=0;points=[[0,0.5],[1,0.5]];portConstraint=eastwest;whiteSpace=wrap;html=1;" vertex="1" parent="VYMpUTlePzN7HzJO34z0-5">
          <mxGeometry y="52" width="160" height="26" as="geometry" />
        </mxCell>
        <mxCell id="VYMpUTlePzN7HzJO34z0-7" value="" style="line;strokeWidth=1;fillColor=none;align=left;verticalAlign=middle;spacingTop=-1;spacingLeft=3;spacingRight=3;rotatable=0;labelPosition=right;points=[];portConstraint=eastwest;strokeColor=inherit;" vertex="1" parent="VYMpUTlePzN7HzJO34z0-5">
          <mxGeometry y="78" width="160" height="8" as="geometry" />
        </mxCell>
        <mxCell id="VYMpUTlePzN7HzJO34z0-25" style="edgeStyle=orthogonalEdgeStyle;rounded=0;orthogonalLoop=1;jettySize=auto;html=1;exitX=0.5;exitY=0;exitDx=0;exitDy=0;endArrow=block;endFill=0;" edge="1" parent="1" source="VYMpUTlePzN7HzJO34z0-8">
          <mxGeometry relative="1" as="geometry">
            <mxPoint x="480" y="140" as="targetPoint" />
          </mxGeometry>
        </mxCell>
        <mxCell id="VYMpUTlePzN7HzJO34z0-8" value="Berater" style="swimlane;fontStyle=1;align=center;verticalAlign=top;childLayout=stackLayout;horizontal=1;startSize=26;horizontalStack=0;resizeParent=1;resizeParentMax=0;resizeLast=0;collapsible=1;marginBottom=0;whiteSpace=wrap;html=1;" vertex="1" parent="1">
          <mxGeometry x="500" y="180" width="160" height="60" as="geometry" />
        </mxCell>
        <mxCell id="VYMpUTlePzN7HzJO34z0-9" value="+ Berater: Berater" style="text;strokeColor=none;fillColor=none;align=left;verticalAlign=top;spacingLeft=4;spacingRight=4;overflow=hidden;rotatable=0;points=[[0,0.5],[1,0.5]];portConstraint=eastwest;whiteSpace=wrap;html=1;" vertex="1" parent="VYMpUTlePzN7HzJO34z0-8">
          <mxGeometry y="26" width="160" height="26" as="geometry" />
        </mxCell>
        <mxCell id="VYMpUTlePzN7HzJO34z0-10" value="" style="line;strokeWidth=1;fillColor=none;align=left;verticalAlign=middle;spacingTop=-1;spacingLeft=3;spacingRight=3;rotatable=0;labelPosition=right;points=[];portConstraint=eastwest;strokeColor=inherit;" vertex="1" parent="VYMpUTlePzN7HzJO34z0-8">
          <mxGeometry y="52" width="160" height="8" as="geometry" />
        </mxCell>
        <mxCell id="VYMpUTlePzN7HzJO34z0-27" style="edgeStyle=orthogonalEdgeStyle;rounded=0;orthogonalLoop=1;jettySize=auto;html=1;exitX=1;exitY=0.5;exitDx=0;exitDy=0;endArrow=blockThin;endFill=1;entryX=0;entryY=0.5;entryDx=0;entryDy=0;" edge="1" parent="1" source="VYMpUTlePzN7HzJO34z0-11" target="VYMpUTlePzN7HzJO34z0-16">
          <mxGeometry relative="1" as="geometry" />
        </mxCell>
        <mxCell id="VYMpUTlePzN7HzJO34z0-11" value="Konto" style="swimlane;fontStyle=1;align=center;verticalAlign=top;childLayout=stackLayout;horizontal=1;startSize=26;horizontalStack=0;resizeParent=1;resizeParentMax=0;resizeLast=0;collapsible=1;marginBottom=0;whiteSpace=wrap;html=1;" vertex="1" parent="1">
          <mxGeometry x="300" y="310" width="160" height="86" as="geometry" />
        </mxCell>
        <mxCell id="VYMpUTlePzN7HzJO34z0-12" value="+ Betrag: float" style="text;strokeColor=none;fillColor=none;align=left;verticalAlign=top;spacingLeft=4;spacingRight=4;overflow=hidden;rotatable=0;points=[[0,0.5],[1,0.5]];portConstraint=eastwest;whiteSpace=wrap;html=1;" vertex="1" parent="VYMpUTlePzN7HzJO34z0-11">
          <mxGeometry y="26" width="160" height="26" as="geometry" />
        </mxCell>
        <mxCell id="VYMpUTlePzN7HzJO34z0-15" value="+ Währung: Währung" style="text;strokeColor=none;fillColor=none;align=left;verticalAlign=top;spacingLeft=4;spacingRight=4;overflow=hidden;rotatable=0;points=[[0,0.5],[1,0.5]];portConstraint=eastwest;whiteSpace=wrap;html=1;" vertex="1" parent="VYMpUTlePzN7HzJO34z0-11">
          <mxGeometry y="52" width="160" height="26" as="geometry" />
        </mxCell>
        <mxCell id="VYMpUTlePzN7HzJO34z0-13" value="" style="line;strokeWidth=1;fillColor=none;align=left;verticalAlign=middle;spacingTop=-1;spacingLeft=3;spacingRight=3;rotatable=0;labelPosition=right;points=[];portConstraint=eastwest;strokeColor=inherit;" vertex="1" parent="VYMpUTlePzN7HzJO34z0-11">
          <mxGeometry y="78" width="160" height="8" as="geometry" />
        </mxCell>
        <mxCell id="VYMpUTlePzN7HzJO34z0-16" value="&lt;div&gt;&amp;lt;&amp;lt;abstract&amp;gt;&amp;gt;&lt;/div&gt;Währung" style="swimlane;fontStyle=1;align=center;verticalAlign=top;childLayout=stackLayout;horizontal=1;startSize=42;horizontalStack=0;resizeParent=1;resizeParentMax=0;resizeLast=0;collapsible=1;marginBottom=0;whiteSpace=wrap;html=1;" vertex="1" parent="1">
          <mxGeometry x="500" y="266" width="160" height="50" as="geometry">
            <mxRectangle x="500" y="270" width="110" height="40" as="alternateBounds" />
          </mxGeometry>
        </mxCell>
        <mxCell id="VYMpUTlePzN7HzJO34z0-19" value="" style="line;strokeWidth=1;fillColor=none;align=left;verticalAlign=middle;spacingTop=-1;spacingLeft=3;spacingRight=3;rotatable=0;labelPosition=right;points=[];portConstraint=eastwest;strokeColor=inherit;" vertex="1" parent="VYMpUTlePzN7HzJO34z0-16">
          <mxGeometry y="42" width="160" height="8" as="geometry" />
        </mxCell>
        <mxCell id="VYMpUTlePzN7HzJO34z0-28" style="edgeStyle=orthogonalEdgeStyle;rounded=0;orthogonalLoop=1;jettySize=auto;html=1;exitX=0.5;exitY=0;exitDx=0;exitDy=0;entryX=0.5;entryY=1;entryDx=0;entryDy=0;endArrow=block;endFill=0;" edge="1" parent="1" source="VYMpUTlePzN7HzJO34z0-20" target="VYMpUTlePzN7HzJO34z0-16">
          <mxGeometry relative="1" as="geometry" />
        </mxCell>
        <mxCell id="VYMpUTlePzN7HzJO34z0-20" value="EUR" style="swimlane;fontStyle=1;align=center;verticalAlign=top;childLayout=stackLayout;horizontal=1;startSize=26;horizontalStack=0;resizeParent=1;resizeParentMax=0;resizeLast=0;collapsible=1;marginBottom=0;whiteSpace=wrap;html=1;" vertex="1" parent="1">
          <mxGeometry x="500" y="362" width="60" height="34" as="geometry" />
        </mxCell>
        <mxCell id="VYMpUTlePzN7HzJO34z0-21" value="" style="line;strokeWidth=1;fillColor=none;align=left;verticalAlign=middle;spacingTop=-1;spacingLeft=3;spacingRight=3;rotatable=0;labelPosition=right;points=[];portConstraint=eastwest;strokeColor=inherit;" vertex="1" parent="VYMpUTlePzN7HzJO34z0-20">
          <mxGeometry y="26" width="60" height="8" as="geometry" />
        </mxCell>
        <mxCell id="VYMpUTlePzN7HzJO34z0-30" style="edgeStyle=orthogonalEdgeStyle;rounded=0;orthogonalLoop=1;jettySize=auto;html=1;exitX=0.5;exitY=0;exitDx=0;exitDy=0;entryX=0.5;entryY=1;entryDx=0;entryDy=0;endArrow=block;endFill=0;" edge="1" parent="1" source="VYMpUTlePzN7HzJO34z0-22" target="VYMpUTlePzN7HzJO34z0-16">
          <mxGeometry relative="1" as="geometry" />
        </mxCell>
        <mxCell id="VYMpUTlePzN7HzJO34z0-22" value="USD" style="swimlane;fontStyle=1;align=center;verticalAlign=top;childLayout=stackLayout;horizontal=1;startSize=26;horizontalStack=0;resizeParent=1;resizeParentMax=0;resizeLast=0;collapsible=1;marginBottom=0;whiteSpace=wrap;html=1;" vertex="1" parent="1">
          <mxGeometry x="600" y="362" width="60" height="34" as="geometry" />
        </mxCell>
        <mxCell id="VYMpUTlePzN7HzJO34z0-23" value="" style="line;strokeWidth=1;fillColor=none;align=left;verticalAlign=middle;spacingTop=-1;spacingLeft=3;spacingRight=3;rotatable=0;labelPosition=right;points=[];portConstraint=eastwest;strokeColor=inherit;" vertex="1" parent="VYMpUTlePzN7HzJO34z0-22">
          <mxGeometry y="26" width="60" height="8" as="geometry" />
        </mxCell>
      </root>
    </mxGraphModel>
  </diagram>
  <diagram id="C5RBs43oDa-KdzZeNtuy" name="Star Wars" />
  <diagram id="3ioDmaJ7gbmRXK9w4Tqg" name="E-Post">
    <mxGraphModel dx="588" dy="578" grid="1" gridSize="10" guides="1" tooltips="1" connect="1" arrows="1" fold="1" page="1" pageScale="1" pageWidth="1169" pageHeight="827" math="0" shadow="0">
      <root>
        <mxCell id="0" />
        <mxCell id="1" parent="0" />
        <mxCell id="nJV-wV36-fek-TO85JfS-2" value="" style="rounded=0;whiteSpace=wrap;html=1;" vertex="1" parent="1">
          <mxGeometry x="80" y="70" width="250" height="230" as="geometry" />
        </mxCell>
        <mxCell id="nJV-wV36-fek-TO85JfS-3" value="Nutzer" style="shape=umlActor;verticalLabelPosition=bottom;verticalAlign=top;html=1;outlineConnect=0;" vertex="1" parent="1">
          <mxGeometry x="40" y="80" width="30" height="60" as="geometry" />
        </mxCell>
        <mxCell id="nJV-wV36-fek-TO85JfS-4" value="Kunde" style="shape=umlActor;verticalLabelPosition=bottom;verticalAlign=top;html=1;outlineConnect=0;" vertex="1" parent="1">
          <mxGeometry x="40" y="220" width="30" height="60" as="geometry" />
        </mxCell>
        <mxCell id="nJV-wV36-fek-TO85JfS-5" value="" style="endArrow=block;html=1;rounded=0;endFill=0;" edge="1" parent="1">
          <mxGeometry width="50" height="50" relative="1" as="geometry">
            <mxPoint x="55" y="210" as="sourcePoint" />
            <mxPoint x="55" y="170" as="targetPoint" />
          </mxGeometry>
        </mxCell>
        <mxCell id="nJV-wV36-fek-TO85JfS-6" value="empfangen" style="ellipse;whiteSpace=wrap;html=1;" vertex="1" parent="1">
          <mxGeometry x="110" y="80" width="80" height="30" as="geometry" />
        </mxCell>
        <mxCell id="nJV-wV36-fek-TO85JfS-7" value="registrieren" style="ellipse;whiteSpace=wrap;html=1;" vertex="1" parent="1">
          <mxGeometry x="110" y="120" width="80" height="30" as="geometry" />
        </mxCell>
        <mxCell id="nJV-wV36-fek-TO85JfS-8" value="verwalten" style="ellipse;whiteSpace=wrap;html=1;" vertex="1" parent="1">
          <mxGeometry x="110" y="260" width="80" height="30" as="geometry" />
        </mxCell>
        <mxCell id="nJV-wV36-fek-TO85JfS-9" value="schreiben" style="ellipse;whiteSpace=wrap;html=1;" vertex="1" parent="1">
          <mxGeometry x="110" y="220" width="80" height="30" as="geometry" />
        </mxCell>
        <mxCell id="nJV-wV36-fek-TO85JfS-10" value="senden" style="ellipse;whiteSpace=wrap;html=1;" vertex="1" parent="1">
          <mxGeometry x="110" y="180" width="80" height="30" as="geometry" />
        </mxCell>
        <mxCell id="nJV-wV36-fek-TO85JfS-11" value="Zusteller" style="shape=umlActor;verticalLabelPosition=bottom;verticalAlign=top;html=1;outlineConnect=0;" vertex="1" parent="1">
          <mxGeometry x="340" y="155" width="30" height="60" as="geometry" />
        </mxCell>
        <mxCell id="nJV-wV36-fek-TO85JfS-12" value="zustellen" style="ellipse;whiteSpace=wrap;html=1;" vertex="1" parent="1">
          <mxGeometry x="220" y="170" width="80" height="30" as="geometry" />
        </mxCell>
        <mxCell id="nJV-wV36-fek-TO85JfS-13" value="" style="endArrow=none;html=1;rounded=0;entryX=0;entryY=0.5;entryDx=0;entryDy=0;exitX=0.5;exitY=0.5;exitDx=0;exitDy=0;exitPerimeter=0;" edge="1" parent="1" source="nJV-wV36-fek-TO85JfS-3" target="nJV-wV36-fek-TO85JfS-6">
          <mxGeometry width="50" height="50" relative="1" as="geometry">
            <mxPoint x="170" y="240" as="sourcePoint" />
            <mxPoint x="220" y="190" as="targetPoint" />
          </mxGeometry>
        </mxCell>
        <mxCell id="nJV-wV36-fek-TO85JfS-14" value="" style="endArrow=none;html=1;rounded=0;entryX=0;entryY=0.5;entryDx=0;entryDy=0;exitX=0.5;exitY=0.5;exitDx=0;exitDy=0;exitPerimeter=0;" edge="1" parent="1" source="nJV-wV36-fek-TO85JfS-3" target="nJV-wV36-fek-TO85JfS-7">
          <mxGeometry width="50" height="50" relative="1" as="geometry">
            <mxPoint x="65" y="120" as="sourcePoint" />
            <mxPoint x="122" y="104" as="targetPoint" />
          </mxGeometry>
        </mxCell>
        <mxCell id="nJV-wV36-fek-TO85JfS-16" value="" style="endArrow=none;html=1;rounded=0;entryX=0;entryY=0.5;entryDx=0;entryDy=0;exitX=0.5;exitY=0.5;exitDx=0;exitDy=0;exitPerimeter=0;" edge="1" parent="1" source="nJV-wV36-fek-TO85JfS-4" target="nJV-wV36-fek-TO85JfS-10">
          <mxGeometry width="50" height="50" relative="1" as="geometry">
            <mxPoint x="65" y="120" as="sourcePoint" />
            <mxPoint x="120" y="145" as="targetPoint" />
          </mxGeometry>
        </mxCell>
        <mxCell id="nJV-wV36-fek-TO85JfS-17" value="" style="endArrow=none;html=1;rounded=0;entryX=0;entryY=0.5;entryDx=0;entryDy=0;exitX=0.5;exitY=0.5;exitDx=0;exitDy=0;exitPerimeter=0;" edge="1" parent="1" source="nJV-wV36-fek-TO85JfS-4" target="nJV-wV36-fek-TO85JfS-9">
          <mxGeometry width="50" height="50" relative="1" as="geometry">
            <mxPoint x="65" y="260" as="sourcePoint" />
            <mxPoint x="120" y="205" as="targetPoint" />
          </mxGeometry>
        </mxCell>
        <mxCell id="nJV-wV36-fek-TO85JfS-18" value="" style="endArrow=none;html=1;rounded=0;entryX=0;entryY=0.5;entryDx=0;entryDy=0;exitX=0.5;exitY=0.5;exitDx=0;exitDy=0;exitPerimeter=0;" edge="1" parent="1" source="nJV-wV36-fek-TO85JfS-4" target="nJV-wV36-fek-TO85JfS-8">
          <mxGeometry width="50" height="50" relative="1" as="geometry">
            <mxPoint x="65" y="260" as="sourcePoint" />
            <mxPoint x="120" y="245" as="targetPoint" />
          </mxGeometry>
        </mxCell>
        <mxCell id="nJV-wV36-fek-TO85JfS-19" value="" style="endArrow=none;html=1;rounded=0;exitX=1;exitY=0.5;exitDx=0;exitDy=0;entryX=0.5;entryY=0.5;entryDx=0;entryDy=0;entryPerimeter=0;" edge="1" parent="1" source="nJV-wV36-fek-TO85JfS-12" target="nJV-wV36-fek-TO85JfS-11">
          <mxGeometry width="50" height="50" relative="1" as="geometry">
            <mxPoint x="65" y="260" as="sourcePoint" />
            <mxPoint x="350.38461538461536" y="210" as="targetPoint" />
          </mxGeometry>
        </mxCell>
        <mxCell id="nJV-wV36-fek-TO85JfS-20" value="E-Post-System" style="text;html=1;align=center;verticalAlign=middle;whiteSpace=wrap;rounded=0;" vertex="1" parent="1">
          <mxGeometry x="160" y="40" width="90" height="30" as="geometry" />
        </mxCell>
      </root>
    </mxGraphModel>
  </diagram>
  <diagram id="pLxH-jli7Uel48wUpbZ6" name="Zustandsdiagramm">
    <mxGraphModel dx="2197" dy="1012" grid="1" gridSize="10" guides="1" tooltips="1" connect="1" arrows="1" fold="1" page="1" pageScale="1" pageWidth="1169" pageHeight="827" math="0" shadow="0">
      <root>
        <mxCell id="0" />
        <mxCell id="1" parent="0" />
        <mxCell id="4BU65ERraMlawbvB9dij-3" style="edgeStyle=orthogonalEdgeStyle;rounded=0;orthogonalLoop=1;jettySize=auto;html=1;exitX=0.5;exitY=1;exitDx=0;exitDy=0;endArrow=blockThin;endFill=1;" edge="1" parent="1" source="4BU65ERraMlawbvB9dij-1" target="4BU65ERraMlawbvB9dij-2">
          <mxGeometry relative="1" as="geometry" />
        </mxCell>
        <mxCell id="4BU65ERraMlawbvB9dij-8" style="edgeStyle=orthogonalEdgeStyle;rounded=0;orthogonalLoop=1;jettySize=auto;html=1;exitX=1;exitY=0.5;exitDx=0;exitDy=0;entryX=0;entryY=0;entryDx=0;entryDy=0;endArrow=blockThin;endFill=1;" edge="1" parent="1" source="4BU65ERraMlawbvB9dij-1" target="4BU65ERraMlawbvB9dij-7">
          <mxGeometry relative="1" as="geometry">
            <Array as="points">
              <mxPoint x="380" y="100" />
              <mxPoint x="380" y="100" />
            </Array>
          </mxGeometry>
        </mxCell>
        <mxCell id="4BU65ERraMlawbvB9dij-1" value="Ohne Name" style="rounded=0;whiteSpace=wrap;html=1;" vertex="1" parent="1">
          <mxGeometry x="80" y="80" width="120" height="40" as="geometry" />
        </mxCell>
        <mxCell id="4BU65ERraMlawbvB9dij-13" style="edgeStyle=orthogonalEdgeStyle;rounded=0;orthogonalLoop=1;jettySize=auto;html=1;exitX=1;exitY=0.5;exitDx=0;exitDy=0;entryX=0.5;entryY=1;entryDx=0;entryDy=0;endArrow=blockThin;endFill=1;" edge="1" parent="1" source="4BU65ERraMlawbvB9dij-2" target="4BU65ERraMlawbvB9dij-7">
          <mxGeometry relative="1" as="geometry" />
        </mxCell>
        <mxCell id="4BU65ERraMlawbvB9dij-2" value="Alternativname vorschlagen" style="rounded=0;whiteSpace=wrap;html=1;" vertex="1" parent="1">
          <mxGeometry x="80" y="170" width="120" height="40" as="geometry" />
        </mxCell>
        <mxCell id="4BU65ERraMlawbvB9dij-4" value="&lt;font style=&quot;font-size: 10px;&quot;&gt;Name eingeben [Name vergeben] /&lt;/font&gt;&lt;div style=&quot;font-size: 10px;&quot;&gt;&lt;font style=&quot;font-size: 10px;&quot;&gt;Alternativname vorschlagen&lt;/font&gt;&lt;/div&gt;" style="text;html=1;align=center;verticalAlign=middle;whiteSpace=wrap;rounded=0;" vertex="1" parent="1">
          <mxGeometry x="-30" y="130" width="160" height="30" as="geometry" />
        </mxCell>
        <mxCell id="4BU65ERraMlawbvB9dij-5" value="Name reserviert" style="rounded=0;whiteSpace=wrap;html=1;" vertex="1" parent="1">
          <mxGeometry x="440" y="80" width="120" height="20" as="geometry" />
        </mxCell>
        <mxCell id="4BU65ERraMlawbvB9dij-6" value="&lt;font style=&quot;font-size: 10px;&quot;&gt;Name eingeben [Name frei] /&amp;nbsp;&lt;/font&gt;&lt;span style=&quot;font-size: 10px; background-color: initial;&quot;&gt;Name reservieren&lt;/span&gt;" style="text;html=1;align=center;verticalAlign=middle;whiteSpace=wrap;rounded=0;" vertex="1" parent="1">
          <mxGeometry x="210" y="75" width="220" height="30" as="geometry" />
        </mxCell>
        <mxCell id="4BU65ERraMlawbvB9dij-12" style="edgeStyle=orthogonalEdgeStyle;rounded=0;orthogonalLoop=1;jettySize=auto;html=1;exitX=1;exitY=0;exitDx=0;exitDy=0;entryX=0;entryY=0;entryDx=0;entryDy=0;endArrow=blockThin;endFill=1;" edge="1" parent="1" source="4BU65ERraMlawbvB9dij-7" target="4BU65ERraMlawbvB9dij-10">
          <mxGeometry relative="1" as="geometry">
            <Array as="points">
              <mxPoint x="590" y="100" />
              <mxPoint x="590" y="100" />
            </Array>
          </mxGeometry>
        </mxCell>
        <mxCell id="4BU65ERraMlawbvB9dij-7" value="entry: Code senden" style="rounded=0;whiteSpace=wrap;html=1;" vertex="1" parent="1">
          <mxGeometry x="440" y="100" width="120" height="20" as="geometry" />
        </mxCell>
        <mxCell id="4BU65ERraMlawbvB9dij-9" value="Name reserviert" style="rounded=0;whiteSpace=wrap;html=1;" vertex="1" parent="1">
          <mxGeometry x="620" y="80" width="120" height="20" as="geometry" />
        </mxCell>
        <mxCell id="4BU65ERraMlawbvB9dij-16" style="edgeStyle=orthogonalEdgeStyle;rounded=0;orthogonalLoop=1;jettySize=auto;html=1;exitX=0.5;exitY=1;exitDx=0;exitDy=0;entryX=0.5;entryY=0;entryDx=0;entryDy=0;endArrow=blockThin;endFill=1;" edge="1" parent="1" source="4BU65ERraMlawbvB9dij-10" target="4BU65ERraMlawbvB9dij-15">
          <mxGeometry relative="1" as="geometry" />
        </mxCell>
        <mxCell id="4BU65ERraMlawbvB9dij-10" value="do: Daten erfassen" style="rounded=0;whiteSpace=wrap;html=1;" vertex="1" parent="1">
          <mxGeometry x="620" y="100" width="120" height="20" as="geometry" />
        </mxCell>
        <mxCell id="4BU65ERraMlawbvB9dij-11" value="[Code]" style="text;html=1;align=center;verticalAlign=middle;whiteSpace=wrap;rounded=0;fontSize=10;" vertex="1" parent="1">
          <mxGeometry x="570" y="75" width="40" height="30" as="geometry" />
        </mxCell>
        <mxCell id="4BU65ERraMlawbvB9dij-14" value="&lt;span style=&quot;font-size: 10px;&quot;&gt;Name wählen / Name reservieren&lt;/span&gt;" style="text;html=1;align=center;verticalAlign=middle;whiteSpace=wrap;rounded=0;" vertex="1" parent="1">
          <mxGeometry x="240" y="165" width="220" height="30" as="geometry" />
        </mxCell>
        <mxCell id="4BU65ERraMlawbvB9dij-19" style="edgeStyle=orthogonalEdgeStyle;rounded=0;orthogonalLoop=1;jettySize=auto;html=1;exitX=0.5;exitY=1;exitDx=0;exitDy=0;entryX=0.5;entryY=0;entryDx=0;entryDy=0;endArrow=blockThin;endFill=1;" edge="1" parent="1" source="4BU65ERraMlawbvB9dij-15" target="4BU65ERraMlawbvB9dij-18">
          <mxGeometry relative="1" as="geometry" />
        </mxCell>
        <mxCell id="4BU65ERraMlawbvB9dij-15" value="Registrierung abgeschlossen" style="rounded=0;whiteSpace=wrap;html=1;" vertex="1" parent="1">
          <mxGeometry x="620" y="160" width="120" height="40" as="geometry" />
        </mxCell>
        <mxCell id="4BU65ERraMlawbvB9dij-17" value="/ Coupon drucken" style="text;html=1;align=center;verticalAlign=middle;whiteSpace=wrap;rounded=0;fontSize=10;" vertex="1" parent="1">
          <mxGeometry x="590" y="120" width="90" height="40" as="geometry" />
        </mxCell>
        <mxCell id="4BU65ERraMlawbvB9dij-24" style="edgeStyle=orthogonalEdgeStyle;rounded=0;orthogonalLoop=1;jettySize=auto;html=1;exitX=0;exitY=0.5;exitDx=0;exitDy=0;entryX=1;entryY=1;entryDx=0;entryDy=0;endArrow=blockThin;endFill=1;" edge="1" parent="1" source="4BU65ERraMlawbvB9dij-18" target="4BU65ERraMlawbvB9dij-21">
          <mxGeometry relative="1" as="geometry">
            <Array as="points">
              <mxPoint x="560" y="260" />
              <mxPoint x="560" y="260" />
            </Array>
          </mxGeometry>
        </mxCell>
        <mxCell id="4BU65ERraMlawbvB9dij-36" style="edgeStyle=orthogonalEdgeStyle;rounded=0;orthogonalLoop=1;jettySize=auto;html=1;exitX=0.5;exitY=1;exitDx=0;exitDy=0;entryX=1;entryY=0.5;entryDx=0;entryDy=0;endArrow=blockThin;endFill=1;" edge="1" parent="1" source="4BU65ERraMlawbvB9dij-18" target="4BU65ERraMlawbvB9dij-34">
          <mxGeometry relative="1" as="geometry" />
        </mxCell>
        <mxCell id="4BU65ERraMlawbvB9dij-18" value="Identifikation" style="rounded=0;whiteSpace=wrap;html=1;" vertex="1" parent="1">
          <mxGeometry x="620" y="240" width="120" height="40" as="geometry" />
        </mxCell>
        <mxCell id="4BU65ERraMlawbvB9dij-20" value="[Coupon, Personalausweis]" style="text;html=1;align=center;verticalAlign=middle;whiteSpace=wrap;rounded=0;fontSize=10;" vertex="1" parent="1">
          <mxGeometry x="540" y="200" width="140" height="40" as="geometry" />
        </mxCell>
        <mxCell id="4BU65ERraMlawbvB9dij-21" value="Identifiziert" style="rounded=0;whiteSpace=wrap;html=1;" vertex="1" parent="1">
          <mxGeometry x="410" y="240" width="120" height="20" as="geometry" />
        </mxCell>
        <mxCell id="4BU65ERraMlawbvB9dij-29" style="edgeStyle=orthogonalEdgeStyle;rounded=0;orthogonalLoop=1;jettySize=auto;html=1;exitX=0;exitY=0;exitDx=0;exitDy=0;entryX=1;entryY=0.5;entryDx=0;entryDy=0;endArrow=blockThin;endFill=1;" edge="1" parent="1" source="4BU65ERraMlawbvB9dij-22" target="4BU65ERraMlawbvB9dij-26">
          <mxGeometry relative="1" as="geometry">
            <Array as="points">
              <mxPoint x="390" y="260" />
              <mxPoint x="390" y="260" />
            </Array>
          </mxGeometry>
        </mxCell>
        <mxCell id="4BU65ERraMlawbvB9dij-22" value="entry: SMS senden" style="rounded=0;whiteSpace=wrap;html=1;" vertex="1" parent="1">
          <mxGeometry x="410" y="260" width="120" height="20" as="geometry" />
        </mxCell>
        <mxCell id="4BU65ERraMlawbvB9dij-23" value="[identifiziert]" style="text;html=1;align=center;verticalAlign=middle;whiteSpace=wrap;rounded=0;fontSize=10;" vertex="1" parent="1">
          <mxGeometry x="540" y="235" width="70" height="30" as="geometry" />
        </mxCell>
        <mxCell id="4BU65ERraMlawbvB9dij-35" style="edgeStyle=orthogonalEdgeStyle;rounded=0;orthogonalLoop=1;jettySize=auto;html=1;exitX=0.5;exitY=1;exitDx=0;exitDy=0;entryX=0;entryY=0.5;entryDx=0;entryDy=0;endArrow=blockThin;endFill=1;" edge="1" parent="1" source="4BU65ERraMlawbvB9dij-26" target="4BU65ERraMlawbvB9dij-34">
          <mxGeometry relative="1" as="geometry" />
        </mxCell>
        <mxCell id="4BU65ERraMlawbvB9dij-26" value="Freigeschalten" style="rounded=0;whiteSpace=wrap;html=1;" vertex="1" parent="1">
          <mxGeometry x="190" y="240" width="120" height="40" as="geometry" />
        </mxCell>
        <mxCell id="4BU65ERraMlawbvB9dij-28" value="[SMS gesendet]" style="text;html=1;align=center;verticalAlign=middle;whiteSpace=wrap;rounded=0;fontSize=10;" vertex="1" parent="1">
          <mxGeometry x="320" y="235" width="80" height="30" as="geometry" />
        </mxCell>
        <mxCell id="4BU65ERraMlawbvB9dij-31" value="" style="edgeStyle=orthogonalEdgeStyle;rounded=0;orthogonalLoop=1;jettySize=auto;html=1;endArrow=blockThin;endFill=1;" edge="1" parent="1" source="4BU65ERraMlawbvB9dij-30" target="4BU65ERraMlawbvB9dij-1">
          <mxGeometry relative="1" as="geometry" />
        </mxCell>
        <mxCell id="4BU65ERraMlawbvB9dij-30" value="" style="ellipse;whiteSpace=wrap;html=1;aspect=fixed;fillColor=#000000;" vertex="1" parent="1">
          <mxGeometry x="40" y="90" width="20" height="20" as="geometry" />
        </mxCell>
        <mxCell id="4BU65ERraMlawbvB9dij-34" value="" style="ellipse;whiteSpace=wrap;html=1;aspect=fixed;" vertex="1" parent="1">
          <mxGeometry x="455" y="290" width="30" height="30" as="geometry" />
        </mxCell>
        <mxCell id="4BU65ERraMlawbvB9dij-33" value="" style="ellipse;whiteSpace=wrap;html=1;aspect=fixed;fillColor=#000000;" vertex="1" parent="1">
          <mxGeometry x="460" y="295" width="20" height="20" as="geometry" />
        </mxCell>
        <mxCell id="4BU65ERraMlawbvB9dij-37" value="[nicht identifiziert]" style="text;html=1;align=center;verticalAlign=middle;whiteSpace=wrap;rounded=0;fontSize=10;" vertex="1" parent="1">
          <mxGeometry x="530" y="280" width="90" height="30" as="geometry" />
        </mxCell>
      </root>
    </mxGraphModel>
  </diagram>
</mxfile>
